<svg width="28" height="33" viewBox="0 0 28 33" fill="none" xmlns="http://www.w3.org/2000/svg">
<path d="M27.056 25.438C26.5893 26.5249 26.013 27.5614 25.336 28.5313C24.4306 29.8213 23.69 30.714 23.1193 31.21C22.2346 32.0233 21.286 32.4407 20.2706 32.464C19.542 32.464 18.6633 32.2567 17.64 31.836C16.6133 31.4173 15.67 31.2093 14.8073 31.2093C13.9026 31.2093 12.9326 31.4173 11.8946 31.836C10.8553 32.2567 10.018 32.476 9.37796 32.4973C8.40463 32.5393 7.43396 32.1107 6.46463 31.21C5.84663 30.67 5.07396 29.746 4.14729 28.4367C3.15329 27.038 2.33596 25.4167 1.69596 23.5673C1.01063 21.5707 0.666626 19.6367 0.666626 17.7647C0.666626 15.62 1.12996 13.7707 2.05796 12.2207C2.78796 10.9753 3.75796 9.994 4.97263 9.27267C6.16428 8.55956 7.52398 8.17581 8.91263 8.16067C9.68596 8.16067 10.7 8.4 11.9606 8.87C13.2173 9.34133 14.024 9.58067 14.378 9.58067C14.642 9.58067 15.5386 9.30067 17.058 8.74333C18.4953 8.226 19.708 8.012 20.7013 8.09667C23.394 8.314 25.4166 9.37533 26.7613 11.2873C24.354 12.746 23.1626 14.7893 23.1866 17.4107C23.208 19.4527 23.9486 21.152 25.4046 22.5007C26.0646 23.1273 26.8013 23.6113 27.6206 23.9547C27.4488 24.4552 27.2605 24.9499 27.056 25.438ZM20.8813 1.14067C20.8813 2.74067 20.2966 4.23533 19.1313 5.618C17.7246 7.26267 16.024 8.21267 14.1793 8.06267C14.1545 7.86139 14.142 7.65879 14.142 7.456C14.142 5.92 14.8106 4.276 15.9986 2.93133C16.592 2.25067 17.3453 1.68467 18.26 1.23333C19.1733 0.788667 20.036 0.542667 20.848 0.5C20.8713 0.714 20.8813 0.928 20.8813 1.14V1.14067Z" fill="white"/>
</svg>
